<svg xmlns="http://www.w3.org/2000/svg" xmlns:xlink="http://www.w3.org/1999/xlink" width="500" zoomAndPan="magnify" viewBox="0 0 375 374.999991" height="500" preserveAspectRatio="xMidYMid meet" version="1.0"><defs><g/></defs><path stroke-linecap="butt" transform="matrix(1.330665, 0, 0, 1.330665, 46.573573, 127.899044)" fill="none" stroke-linejoin="miter" d="M 24.63279 12.792725 C 27.976396 12.792725 30.97067 13.532487 33.618547 15.00614 C 36.275231 16.482728 38.356545 18.520008 39.86836 21.115045 C 41.377239 23.710083 42.131679 26.481254 42.131679 29.434429 C 42.131679 33.488441 41.039649 37.336964 38.852655 40.982933 C 36.665661 44.620095 33.703678 47.532173 29.972578 49.719167 C 26.238543 51.906161 22.345987 53.001126 18.291975 53.001126 L 3.411609 53.001126 L 9.764166 12.792725 Z M 15.247797 44.147469 L 17.27627 44.147469 C 21.512287 44.147469 24.882313 42.896919 27.380477 40.39582 C 29.890383 37.88885 31.143868 34.642117 31.143868 30.658559 C 31.143868 27.949035 30.298426 25.770847 28.604606 24.121061 C 26.919593 22.471275 24.406752 21.646382 21.066082 21.646382 L 18.826248 21.646382 Z M 83.88712 29.002902 C 83.88712 32.874909 82.765735 36.893694 80.525901 41.059257 C 78.289002 45.218949 75.124466 48.468617 71.035227 50.811196 C 66.945989 53.15671 62.554387 54.328 57.860423 54.328 C 52.209465 54.328 47.62118 52.666471 44.098505 49.340479 C 40.581702 46.017422 38.8233 41.637563 38.8233 36.203837 C 38.8233 31.724168 40.003396 27.593832 42.366524 23.809892 C 44.735522 20.017145 47.955835 17.008193 52.02746 14.785972 C 56.09615 12.563752 60.299875 11.454109 64.62983 11.454109 C 68.084987 11.454109 71.314106 12.199742 74.317186 13.693943 C 77.320267 15.185209 79.662846 17.260652 81.347858 19.917336 C 83.038743 22.562278 83.88712 25.591778 83.88712 29.002902 Z M 59.460304 44.197374 C 61.882143 44.197374 64.113171 43.533936 66.153387 42.207062 C 68.202409 40.868446 69.828711 39.14527 71.035227 37.037536 C 72.241743 34.920996 72.846469 32.82794 72.846469 30.761304 C 72.846469 28.201493 71.877734 26.032113 69.943198 24.253162 C 68.005727 22.471275 65.683697 21.5818 62.977108 21.5818 C 60.884052 21.5818 58.805674 22.154234 56.739038 23.302039 C 54.681208 24.438102 53.01968 25.96753 51.751517 27.884452 C 50.495096 29.801375 49.86395 31.932593 49.86395 34.278108 C 49.86395 37.157895 50.759297 39.532765 52.547054 41.399782 C 54.343619 43.2668 56.648035 44.197374 59.460304 44.197374 Z M 100.731378 12.792725 C 104.074984 12.792725 107.069257 13.532487 109.717135 15.00614 C 112.370883 16.482728 114.455133 18.520008 115.964012 21.115045 C 117.475827 23.710083 118.230266 26.481254 118.230266 29.434429 C 118.230266 33.488441 117.138237 37.336964 114.948307 40.982933 C 112.761313 44.620095 109.802266 47.532173 106.071166 49.719167 C 102.337131 51.906161 98.444575 53.001126 94.390563 53.001126 L 79.510196 53.001126 L 85.862754 12.792725 Z M 91.343449 44.147469 L 93.374858 44.147469 C 97.610875 44.147469 100.977965 42.896919 103.479064 40.39582 C 105.98897 37.88885 107.242456 34.642117 107.242456 30.658559 C 107.242456 27.949035 106.397014 25.770847 104.703194 24.121061 C 103.018181 22.471275 100.50534 21.646382 97.164669 21.646382 L 94.924835 21.646382 Z M 91.343449 44.147469 " stroke="#000000" stroke-width="5.73333" stroke-opacity="1" stroke-miterlimit="4"/><g fill="#ff3131" fill-opacity="1"><g transform="translate(46.573573, 198.424283)"><g><path d="M 32.78125 -53.515625 C 37.226562 -53.515625 41.210938 -52.53125 44.734375 -50.5625 C 48.265625 -48.601562 51.035156 -45.894531 53.046875 -42.4375 C 55.054688 -38.988281 56.0625 -35.300781 56.0625 -31.375 C 56.0625 -25.976562 54.609375 -20.851562 51.703125 -16 C 48.796875 -11.15625 44.859375 -7.273438 39.890625 -4.359375 C 34.921875 -1.453125 29.738281 0 24.34375 0 L 4.546875 0 L 12.984375 -53.515625 Z M 20.296875 -11.78125 L 23 -11.78125 C 28.625 -11.78125 33.101562 -13.445312 36.4375 -16.78125 C 39.78125 -20.113281 41.453125 -24.429688 41.453125 -29.734375 C 41.453125 -33.328125 40.328125 -36.222656 38.078125 -38.421875 C 35.828125 -40.628906 32.476562 -41.734375 28.03125 -41.734375 L 25.046875 -41.734375 Z M 20.296875 -11.78125 "/></g></g></g><g fill="#ff3131" fill-opacity="1"><g transform="translate(92.414133, 198.424283)"><g><path d="M 65.78125 -31.9375 C 65.78125 -26.78125 64.289062 -21.429688 61.3125 -15.890625 C 58.332031 -10.359375 54.117188 -6.03125 48.671875 -2.90625 C 43.234375 0.21875 37.394531 1.78125 31.15625 1.78125 C 23.632812 1.78125 17.53125 -0.429688 12.84375 -4.859375 C 8.15625 -9.285156 5.8125 -15.117188 5.8125 -22.359375 C 5.8125 -28.316406 7.382812 -33.8125 10.53125 -38.84375 C 13.6875 -43.882812 17.972656 -47.882812 23.390625 -50.84375 C 28.804688 -53.800781 34.398438 -55.28125 40.171875 -55.28125 C 44.753906 -55.28125 49.046875 -54.285156 53.046875 -52.296875 C 57.046875 -50.316406 60.164062 -47.5625 62.40625 -44.03125 C 64.65625 -40.507812 65.78125 -36.476562 65.78125 -31.9375 Z M 33.28125 -11.703125 C 36.5 -11.703125 39.46875 -12.585938 42.1875 -14.359375 C 44.90625 -16.140625 47.066406 -18.4375 48.671875 -21.25 C 50.285156 -24.070312 51.09375 -26.851562 51.09375 -29.59375 C 51.09375 -33 49.800781 -35.882812 47.21875 -38.25 C 44.644531 -40.613281 41.5625 -41.796875 37.96875 -41.796875 C 35.175781 -41.796875 32.40625 -41.039062 29.65625 -39.53125 C 26.914062 -38.019531 24.707031 -35.984375 23.03125 -33.421875 C 21.351562 -30.867188 20.515625 -28.03125 20.515625 -24.90625 C 20.515625 -21.070312 21.707031 -17.910156 24.09375 -15.421875 C 26.476562 -12.941406 29.539062 -11.703125 33.28125 -11.703125 Z M 33.28125 -11.703125 "/></g></g></g><g fill="#ff3131" fill-opacity="1"><g transform="translate(147.834519, 198.424283)"><g><path d="M 32.78125 -53.515625 C 37.226562 -53.515625 41.210938 -52.53125 44.734375 -50.5625 C 48.265625 -48.601562 51.035156 -45.894531 53.046875 -42.4375 C 55.054688 -38.988281 56.0625 -35.300781 56.0625 -31.375 C 56.0625 -25.976562 54.609375 -20.851562 51.703125 -16 C 48.796875 -11.15625 44.859375 -7.273438 39.890625 -4.359375 C 34.921875 -1.453125 29.738281 0 24.34375 0 L 4.546875 0 L 12.984375 -53.515625 Z M 20.296875 -11.78125 L 23 -11.78125 C 28.625 -11.78125 33.101562 -13.445312 36.4375 -16.78125 C 39.78125 -20.113281 41.453125 -24.429688 41.453125 -29.734375 C 41.453125 -33.328125 40.328125 -36.222656 38.078125 -38.421875 C 35.828125 -40.628906 32.476562 -41.734375 28.03125 -41.734375 L 25.046875 -41.734375 Z M 20.296875 -11.78125 "/></g></g></g><path stroke-linecap="butt" transform="matrix(1.330665, 0, 0, 1.330665, 193.678571, 127.899044)" fill="none" stroke-linejoin="miter" d="M 32.641359 12.792725 L 31.246967 21.646382 L 18.826602 21.646382 L 17.758057 28.365885 L 29.541405 28.365885 L 28.161691 37.219541 L 16.3666 37.219541 L 15.245215 44.147469 L 27.680258 44.147469 L 26.288802 53.001126 L 3.411963 53.001126 L 9.76452 12.792725 Z M 49.327096 12.792725 C 52.955452 12.792725 55.861659 13.64991 58.048653 15.358407 C 60.238582 17.061033 61.330612 19.509293 61.330612 22.703185 C 61.330612 26.123115 60.314907 29.137938 58.283498 31.750588 C 56.260895 34.363239 53.665858 35.951378 50.498386 36.517942 L 60.523332 53.001126 L 47.515854 53.001126 L 40.10943 37.533647 L 39.992008 37.533647 L 37.543748 53.001126 L 27.087275 53.001126 L 33.442768 12.792725 Z M 41.057617 30.814144 L 42.504849 30.814144 C 44.961915 30.814144 46.861224 30.297485 48.205712 29.264167 C 49.561941 28.230849 50.237121 26.72197 50.237121 24.734594 C 50.237121 22.10433 48.06774 20.789198 43.728979 20.789198 L 42.660434 20.789198 Z M 87.292727 12.792725 L 96.093543 53.001126 L 84.950148 53.001126 L 83.464753 46.008616 L 69.065819 46.008616 L 65.170327 53.001126 L 54.079772 53.001126 L 75.888066 12.792725 Z M 73.216704 38.015079 L 81.914776 38.015079 L 79.674942 25.216026 L 79.572197 25.216026 Z M 73.216704 38.015079 " stroke="#000000" stroke-width="5.399997" stroke-opacity="1" stroke-miterlimit="4"/><g fill="#226eab" fill-opacity="1"><g transform="translate(193.678571, 198.424283)"><g><path d="M 43.4375 -53.515625 L 41.59375 -41.734375 L 25.046875 -41.734375 L 23.625 -32.78125 L 39.3125 -32.78125 L 37.46875 -21 L 21.78125 -21 L 20.296875 -11.78125 L 36.828125 -11.78125 L 34.984375 0 L 4.546875 0 L 12.984375 -53.515625 Z M 43.4375 -53.515625 "/></g></g></g><g fill="#226eab" fill-opacity="1"><g transform="translate(225.184835, 198.424283)"><g><path d="M 34.140625 -53.515625 C 38.960938 -53.515625 42.828125 -52.378906 45.734375 -50.109375 C 48.648438 -47.835938 50.109375 -44.570312 50.109375 -40.3125 C 50.109375 -35.769531 48.757812 -31.757812 46.0625 -28.28125 C 43.363281 -24.800781 39.910156 -22.679688 35.703125 -21.921875 L 49.046875 0 L 31.71875 0 L 21.859375 -20.578125 L 21.71875 -20.578125 L 18.453125 0 L 4.546875 0 L 12.984375 -53.515625 Z M 23.140625 -29.515625 L 25.046875 -29.515625 C 28.316406 -29.515625 30.847656 -30.203125 32.640625 -31.578125 C 34.441406 -32.953125 35.34375 -34.960938 35.34375 -37.609375 C 35.34375 -41.109375 32.457031 -42.859375 26.6875 -42.859375 L 25.265625 -42.859375 Z M 23.140625 -29.515625 "/></g></g></g><g fill="#226eab" fill-opacity="1"><g transform="translate(265.916131, 198.424283)"><g><path d="M 43.9375 -53.515625 L 55.640625 0 L 40.8125 0 L 38.8125 -9.296875 L 19.65625 -9.296875 L 14.484375 0 L -0.28125 0 L 28.75 -53.515625 Z M 25.1875 -19.9375 L 36.765625 -19.9375 L 33.78125 -36.96875 L 33.640625 -36.96875 Z M 25.1875 -19.9375 "/></g></g></g></svg>